<?xml version="1.0" encoding="UTF-8"?>
<svg width="256px" height="256px" viewBox="0 0 256 256" version="1.1" xmlns="http://www.w3.org/2000/svg" xmlns:xlink="http://www.w3.org/1999/xlink">
    <!-- Generator: Sketch 42 (36781) - http://www.bohemiancoding.com/sketch -->
    <title>Icon_mobile_small</title>
    <desc>Created with Sketch.</desc>
    <defs>
        <path d="M256,201 C256,231.3755 231.3755,256 201,256 L55,256 C24.6245,256 0,231.3755 0,201 L0,55 C0,24.6245 24.6245,0 55,0 L201,0 C231.3755,0 256,24.6245 256,55 L256,201" id="path-1"></path>
        <mask id="mask-2" maskContentUnits="userSpaceOnUse" maskUnits="objectBoundingBox" x="0" y="0" width="256" height="256" fill="white">
            <use xlink:href="#path-1"></use>
        </mask>
        <linearGradient x1="50%" y1="32.058688%" x2="50%" y2="68.5134113%" id="linearGradient-3">
            <stop stop-color="#0D67AF" offset="0%"></stop>
            <stop stop-color="#EF4158" offset="100%"></stop>
        </linearGradient>
    </defs>
    <g id="Стилеобразующие-элементы-услуг" stroke="none" stroke-width="1" fill="none" fill-rule="evenodd">
        <g id="9" transform="translate(-399.000000, -374.000000)">
            <g id="Icon_mobile_small" transform="translate(399.000000, 374.000000)">
                <use id="Fill-1" stroke="#BEBEBE" mask="url(#mask-2)" fill="#FFFFFF" xlink:href="#path-1"></use>
                <g id="Group" transform="translate(31.500000, 22.000000)">
                    <path d="M79.4455,107.738 L59.8455,107.738 C59.654,107.738 59.4995,107.888 59.488,108.075 C58.996,116.926 57.328,126.4605 54.9135,134.2485 C54.8795,134.3545 54.8985,134.4735 54.9645,134.565 C55.0325,134.6545 55.1395,134.71 55.252,134.71 L61.9595,134.71 C62.1135,134.71 62.252,134.61 62.299,134.461 C64.177,128.4575 65.685,120.66 66.2595,114.021 L72.691,114.021 L72.691,134.3535 C72.691,134.548 72.8515,134.7085 73.0485,134.7085 L79.4445,134.7085 C79.642,134.7085 79.801,134.548 79.801,134.3535 L79.801,108.096 C79.8015,107.899 79.6445,107.738 79.4455,107.738" id="Fill-2" fill="#EF3E58"></path>
                    <path d="M162.336,107.738 L155.94,107.738 C155.744,107.738 155.582,107.898 155.582,108.096 L155.582,128.411 C154.1785,128.806 152.7775,128.9945 151.1965,128.9945 C146.9565,128.9945 145.98,127.699 145.98,122.075 L145.98,108.096 C145.98,107.899 145.8205,107.738 145.6235,107.738 L139.2285,107.738 C139.03,107.738 138.8715,107.898 138.8715,108.096 L138.8715,122.7475 C138.8715,131.9115 141.965,135.483 149.905,135.483 C154.4255,135.483 159.468,134.331 162.463,133.191 C162.6025,133.1345 162.695,133.005 162.695,132.8585 L162.695,108.096 C162.694,107.899 162.532,107.738 162.336,107.738" id="Fill-3" fill="#EF3E58"></path>
                    <path d="M26.721,107.766 L20.2205,107.766 C20.058,107.766 19.9145,107.875 19.8765,108.035 C18.846,112.0835 16.7835,118.8315 14.0095,125.903 L7.481,107.973 C7.4295,107.8335 7.297,107.738 7.148,107.738 L0.567,107.738 C0.4515,107.738 0.343,107.7955 0.2765,107.891 C0.2095,107.986 0.1925,108.1095 0.2315,108.2185 L10.0075,135.0565 C8.9855,137.112 8.0685,138.8165 7.1815,140.4675 C6.53,141.682 5.8935,142.8615 5.2535,144.1185 C5.195,144.2275 5.2005,144.3615 5.2645,144.467 C5.3305,144.572 5.446,144.6355 5.5705,144.6355 L12.689,144.6355 C12.8225,144.6355 12.943,144.5615 13.006,144.4425 C14.213,142.1205 15.7045,138.896 17.0925,135.599 C21.2465,125.8275 24.602,116.6155 27.0605,108.2215 C27.0935,108.112 27.072,107.996 27.0045,107.905 C26.9385,107.8175 26.8325,107.766 26.721,107.766" id="Fill-4" fill="#EF3E58"></path>
                    <path d="M50.028,128.4285 C49.996,128.3395 49.928,128.266 49.8425,128.2275 C49.7555,128.186 49.6585,128.183 49.567,128.217 C48.0065,128.792 45.082,129.263 43.048,129.263 C38.587,129.263 36.4645,128.0605 36.4645,121.2195 C36.4645,115.7505 37.1155,113.177 43.048,113.177 C44.73,113.177 46.293,113.4225 48.2725,113.994 C48.435,114.0385 48.6075,113.967 48.6875,113.82 C49.429,112.427 50.3255,110.726 51.3345,108.6395 C51.379,108.5485 51.3805,108.4375 51.339,108.343 C51.2995,108.2525 51.2175,108.1765 51.1205,108.145 C48.496,107.311 45.38,106.8295 42.577,106.8295 C33.2385,106.8295 29.0725,111.2355 29.0725,121.1155 C29.0725,131.142 33.2385,135.61 42.577,135.61 C44.917,135.61 49.531,135.119 51.7545,134.229 C51.9335,134.1585 52.024,133.961 51.958,133.776 L50.028,128.4285" id="Fill-5" fill="#EF3E58"></path>
                    <path d="M110.9095,107.766 L104.4095,107.766 C104.2455,107.766 104.1035,107.875 104.0625,108.035 C103.034,112.087 100.971,118.8345 98.1985,125.903 L91.6685,107.973 C91.6175,107.8335 91.486,107.738 91.3345,107.738 L84.7555,107.738 C84.6405,107.738 84.53,107.7955 84.464,107.891 C84.396,107.986 84.382,108.1095 84.419,108.2185 L94.1935,135.0565 C93.175,137.108 92.262,138.8075 91.3745,140.4585 C90.719,141.674 90.0855,142.855 89.443,144.1175 C89.384,144.2275 89.3895,144.359 89.4545,144.4655 C89.52,144.5705 89.635,144.6355 89.7595,144.6355 L96.8775,144.6355 C97.0085,144.6355 97.133,144.5605 97.1945,144.44 C98.401,142.123 99.8905,138.8995 101.2805,135.597 C105.4285,125.843 108.7835,116.6315 111.249,108.22 C111.282,108.1115 111.261,107.995 111.1955,107.9035 C111.127,107.8175 111.019,107.766 110.9095,107.766" id="Fill-6" fill="#EF3E58"></path>
                    <path d="M134.9175,107.738 L115.9815,107.738 C115.7855,107.738 115.625,107.898 115.625,108.096 L115.625,134.3545 C115.625,134.5495 115.7855,134.71 115.9815,134.71 L122.3765,134.71 C122.5725,134.71 122.733,134.5495 122.733,134.3545 L122.733,114.0225 L132.62,114.0225 C132.7645,114.0225 132.894,113.938 132.948,113.8075 C133.7,112.0325 134.473,110.1545 135.2475,108.229 C135.29,108.12 135.2765,107.994 135.2135,107.899 C135.1475,107.7995 135.0335,107.738 134.9175,107.738" id="Fill-7" fill="#EF3E58"></path>
                    <path d="M34.2995,89.881 C30.0885,89.881 28.776,88.735 28.776,81.572 C28.776,73.9405 30.2065,73.259 34.2995,73.259 C38.468,73.259 39.926,73.9405 39.926,81.572 C39.926,88.735 38.589,89.881 34.2995,89.881 M34.2995,67.338 C25.061,67.338 21.4605,71.299 21.4605,81.4655 C21.4605,91.7815 25.061,95.798 34.2995,95.798 C43.615,95.798 47.2425,91.7805 47.2425,81.4655 C47.2425,71.3005 43.615,67.338 34.2995,67.338" id="Fill-8" fill="#0F67B1"></path>
                    <path d="M72.7635,88.7995 C72.731,88.7105 72.6655,88.6365 72.578,88.599 C72.4905,88.557 72.393,88.5545 72.304,88.5885 C70.743,89.1635 67.816,89.6345 65.783,89.6345 C61.322,89.6345 59.1985,88.432 59.1985,81.591 C59.1985,76.1215 59.849,73.5485 65.783,73.5485 C67.463,73.5485 69.0275,73.7935 71.009,74.3655 C71.1695,74.41 71.3425,74.3385 71.423,74.191 C72.1655,72.798 73.059,71.097 74.068,69.0105 C74.1145,68.9195 74.1165,68.809 74.074,68.715 C74.0335,68.623 73.9535,68.548 73.857,68.516 C71.23,67.6825 68.1175,67.2 65.312,67.2 C55.973,67.2 51.81,71.607 51.81,81.487 C51.81,91.513 55.973,95.9815 65.312,95.9815 C67.653,95.9815 72.2655,95.4905 74.491,94.6005 C74.67,94.53 74.7595,94.332 74.6935,94.147 L72.7635,88.7995" id="Fill-9" fill="#0F67B1"></path>
                    <path d="M19.502,68.1085 L0.567,68.1085 C0.37,68.1085 0.2105,68.269 0.2105,68.4675 L0.2105,94.7255 C0.2105,94.921 0.37,95.081 0.567,95.081 L6.961,95.081 C7.1595,95.081 7.3195,94.921 7.3195,94.7255 L7.3195,74.394 L17.2075,74.394 C17.351,74.394 17.4775,74.309 17.5345,74.179 C18.286,72.4035 19.0605,70.5255 19.8325,68.6005 C19.8775,68.491 19.8635,68.365 19.797,68.2705 C19.731,68.171 19.622,68.1085 19.502,68.1085" id="Fill-10" fill="#0F67B1"></path>
                    <path d="M192.23,131.9735 C192.239,131.8425 192.249,131.7105 192.259,131.577 C192.2755,131.3425 192.292,131.104 192.3085,130.861 C192.563,127.1945 192.824,122.623 192.998,117.5045 C193.003,117.3665 193.0075,117.228 193.0115,117.0895 C193.127,113.577 193.1995,109.8155 193.1995,105.918 C193.1995,102.02 193.127,98.259 193.0115,94.746 C193.0075,94.6075 193.003,94.469 192.998,94.3315 C192.824,89.213 192.563,84.6415 192.3085,80.975 C192.292,80.732 192.2755,80.4935 192.259,80.259 C192.249,80.1255 192.239,79.993 192.23,79.863 C192.203,79.4885 192.176,79.1255 192.1495,78.7735 C192.138,78.6225 192.127,78.474 192.1155,78.3275 C191.8185,74.452 191.5695,72.063 191.544,71.818 C191.504,71.443 191.4575,71.0645 191.4045,70.684 C191.391,70.591 191.374,70.497 191.36,70.4035 C191.2605,69.7335 191.1435,69.0565 191.0025,68.3725 C190.9825,68.276 190.959,68.1775 190.938,68.081 C189.2075,59.977 184.704,51.0815 179.0965,44.35 C176.9345,41.754 174.6085,39.4795 172.215,37.6965 C171.9775,37.5195 169.215,35.467 164.7695,32.405 C159.664,28.886 152.339,24.035 144.0705,19.162 C129.3425,10.4915 116.166,4.427 114.4345,3.6385 C114.433,3.638 114.4315,3.637 114.43,3.6365 C114.4235,3.634 114.418,3.6315 114.4115,3.6285 C114.3395,3.5955 114.289,3.5725 114.264,3.5615 L114.2635,3.5615 C114.2625,3.561 114.261,3.56 114.2605,3.56 C110.388,1.8145 105.637,0.648 100.514,0.1505 C99.536,0.055 98.5465,-0.0175 97.5445,-0.063 C96.652,-0.1035 95.751,-0.124 94.845,-0.124 C94.392,-0.124 93.94,-0.1185 93.49,-0.1085 C86.7395,0.044 80.3705,1.333 75.43,3.56 C75.4245,3.5625 75.4155,3.5665 75.4075,3.57 C74.6225,3.925 61.2815,9.988 46.1625,18.8465 L46.174,18.8465 C45.9895,18.9545 45.8055,19.0625 45.621,19.1715 C30.1545,28.278 17.987,37.316 17.4765,37.6965 C13.674,40.529 10.2935,44.1035 7.2175,48.739 C6.5375,49.763 6.473,52.387 9.5135,52.387 L17.17,52.387 C20.473,52.387 21.2525,50.378 24.9445,47.72 C29.0725,44.749 37.1065,38.6905 51.9635,29.9425 C62.665,23.64 72.685,18.689 77.53,16.3775 C77.543,16.371 77.5555,16.365 77.5685,16.359 C77.656,16.3175 77.742,16.2765 77.826,16.2365 C77.8635,16.2185 77.901,16.2005 77.938,16.1835 C77.987,16.16 78.036,16.1365 78.0835,16.114 C78.1645,16.0755 78.244,16.038 78.3215,16.0015 C78.3245,16 78.3275,15.9985 78.3305,15.997 C78.417,15.956 78.501,15.9165 78.583,15.878 C78.584,15.8775 78.5845,15.877 78.5855,15.8765 C79.831,15.2895 80.5375,14.969 80.5675,14.9555 C83.9765,13.419 88.7635,12.4965 93.8285,12.387 C94.166,12.38 94.505,12.376 94.845,12.376 C95.185,12.376 95.5235,12.38 95.8615,12.387 C97.358,12.4195 98.8285,12.5255 100.248,12.6945 C103.3125,13.0595 106.134,13.7285 108.4225,14.656 C108.661,14.7525 108.894,14.852 109.121,14.9545 C109.1335,14.96 109.26,15.0175 109.4885,15.1225 C111.753,16.1645 124.2245,21.9885 137.727,29.942 C145.684,34.6265 152.832,39.366 157.775,42.772 C162.0635,45.729 164.6935,47.6825 164.7495,47.724 C166.6495,49.139 168.546,51.095 170.3105,53.365 C174.8205,59.1675 178.4685,67.019 179.1125,73.1285 C179.119,73.189 179.376,75.665 179.6815,79.739 C179.702,80.0075 179.722,80.2825 179.7425,80.5645 C179.7565,80.7555 179.7705,80.949 179.784,81.146 C179.8095,81.498 179.8345,81.86 179.86,82.231 C179.8695,82.3745 179.8795,82.5185 179.889,82.664 C179.905,82.908 179.922,83.1555 179.938,83.4065 C179.97,83.894 180.001,84.394 180.032,84.9075 C180.051,85.219 180.0705,85.535 180.089,85.856 C180.093,85.9335 180.0975,86.0115 180.1025,86.0895 C180.123,86.453 180.144,86.8215 180.1645,87.1965 C180.1785,87.4565 180.193,87.7195 180.207,87.985 C180.4815,93.1965 180.6995,99.3905 180.6995,105.918 C180.6995,112.445 180.4815,118.6395 180.207,123.851 C180.193,124.116 180.1785,124.3795 180.1645,124.6395 C180.144,125.014 180.123,125.383 180.1025,125.746 C180.0975,125.824 180.093,125.9025 180.089,125.9795 C180.0705,126.3005 180.051,126.6165 180.032,126.928 C180.001,127.442 179.97,127.942 179.938,128.429 C179.922,128.68 179.905,128.928 179.889,129.172 C179.8795,129.3175 179.8695,129.4615 179.86,129.6045 C179.8345,129.976 179.8095,130.338 179.784,130.69 C179.7705,130.8865 179.7565,131.0805 179.7425,131.2715 C179.722,131.553 179.702,131.8285 179.6815,132.0965 C179.376,136.171 179.119,138.647 179.1125,138.7075 C178.4685,144.817 174.8205,152.6685 170.3105,158.471 C168.546,160.7405 166.6495,162.697 164.7495,164.112 C164.6935,164.1535 162.0635,166.107 157.775,169.0635 C152.832,172.47 145.684,177.209 137.727,181.894 C124.2245,189.8475 111.753,195.6715 109.4885,196.713 C109.26,196.8185 109.1335,196.876 109.121,196.8815 C108.894,196.984 108.661,197.083 108.4225,197.1795 C106.134,198.107 103.3125,198.7765 100.248,199.1415 C98.8285,199.3105 97.358,199.4165 95.8615,199.4485 C95.5235,199.456 95.185,199.4595 94.845,199.4595 C94.505,199.4595 94.166,199.456 93.8285,199.4485 C88.7635,199.3395 83.9765,198.417 80.5675,196.8805 C80.5375,196.867 79.8305,196.5465 78.5855,195.959 C78.572,195.9525 78.5585,195.9465 78.545,195.94 C78.414,195.878 78.278,195.8135 78.135,195.746 C78.1205,195.7395 78.105,195.732 78.0905,195.725 C77.982,195.6735 77.8685,195.6195 77.7535,195.565 C77.694,195.5365 77.634,195.508 77.5725,195.4785 C77.4815,195.435 77.3865,195.3895 77.291,195.344 C77.1705,195.2865 77.047,195.2275 76.92,195.1665 C76.893,195.1535 76.866,195.1405 76.839,195.1275 C71.7745,192.695 62.18,187.91 51.9635,181.8935 C37.1065,173.1455 29.0725,167.087 24.9445,164.1155 C21.2525,161.458 20.473,159.449 17.17,159.449 L9.5135,159.449 C6.473,159.449 6.5375,162.0725 7.2175,163.097 C10.2935,167.732 13.674,171.307 17.4765,174.1395 C17.987,174.52 30.1545,183.558 45.621,192.6645 C46.4465,193.1505 47.266,193.6275 48.0795,194.0965 L48.0685,194.0965 C62.3785,202.345 74.642,207.9195 75.4065,208.265 C75.415,208.269 75.4245,208.273 75.43,208.276 C80.3705,210.503 86.7395,211.792 93.49,211.9445 C93.94,211.9545 94.392,211.9595 94.845,211.9595 C95.751,211.9595 96.652,211.939 97.5445,211.899 C98.5465,211.8535 99.536,211.78 100.514,211.6855 C105.637,211.188 110.388,210.0215 114.2605,208.276 C114.261,208.276 114.2625,208.275 114.2635,208.2745 L114.264,208.2745 C114.289,208.263 114.3395,208.2405 114.4115,208.2075 C114.418,208.2045 114.4235,208.202 114.43,208.199 C114.4315,208.1985 114.433,208.1975 114.4345,208.197 C116.166,207.409 129.3425,201.344 144.0705,192.674 C152.339,187.801 159.664,182.95 164.7695,179.431 C169.215,176.369 171.9775,174.3165 172.215,174.1395 C174.6085,172.356 176.9345,170.082 179.0965,167.486 C184.704,160.7545 189.2075,151.859 190.938,143.755 C190.959,143.658 190.9825,143.56 191.0025,143.4635 C191.1435,142.7795 191.2605,142.1025 191.36,141.432 C191.374,141.339 191.391,141.245 191.4045,141.152 C191.4575,140.7715 191.504,140.393 191.544,140.018 C191.5695,139.773 191.8185,137.384 192.1155,133.508 C192.127,133.362 192.138,133.213 192.1495,133.0625 C192.176,132.7105 192.203,132.3475 192.23,131.9735" id="Fill-11" fill="url(#linearGradient-3)"></path>
                </g>
            </g>
        </g>
    </g>
</svg>