<svg xmlns="http://www.w3.org/2000/svg" viewBox="0 0 87 94"><path fill="#5CC4CA" d="M43.5 4c2.4 0 4.7.4 6.3 1.1.1 0 6.4 2.9 13.4 7 6.9 4.1 12.6 8.3 12.6 8.3 3 2.2 5.9 7.5 6.3 11.2 0 .1.7 7.1.7 15.3s-.7 15.3-.7 15.3c-.4 3.8-3.4 9-6.3 11.2-.1 0-5.7 4.2-12.6 8.3-6.9 4.1-13.3 7-13.4 7-1.6.7-3.9 1.1-6.3 1.1s-4.7-.4-6.3-1.1c-.1 0-6.4-2.9-13.4-7-6.9-4.1-12.6-8.3-12.6-8.3-3-2.2-5.9-7.5-6.3-11.2-.2 0-.9-7.1-.9-15.2s.7-15.3.7-15.3c.4-3.8 3.4-9 6.3-11.2.1 0 5.7-4.2 12.6-8.3s13.3-7 13.4-7c1.8-.8 4.1-1.2 6.5-1.2m0-4c-2.9 0-5.8.5-7.9 1.5 0 0-6.5 2.9-13.8 7.2-7.2 4.3-13 8.5-13 8.5-3.9 2.9-7.4 9.2-7.9 14 0 0-.8 7.2-.8 15.8 0 8.5.8 15.8.8 15.8.5 4.8 4.1 11.1 7.9 14 0 0 5.8 4.3 13 8.6s13.8 7.2 13.8 7.2c2.2 1 5.1 1.5 7.9 1.5s5.8-.5 7.9-1.5c0 0 6.5-2.9 13.8-7.2 7.2-4.3 13-8.6 13-8.6 3.9-2.9 7.4-9.2 7.9-14 0 0 .8-7.2.8-15.8 0-8.5-.8-15.8-.8-15.8-.5-4.8-4.1-11.1-7.9-14 0 0-5.8-4.3-13-8.5C58 4.4 51.4 1.5 51.4 1.5c-2.2-1-5-1.5-7.9-1.5z"/><path fill="#5CC4CA" d="M52.4 63.9c-3.2 0-5.9-2-6.7-5-.2-.8-.3-1.4-.3-1.9 0-3.9 3.1-7 7-7s7 3.1 7 7-3 6.9-7 6.9zm0-10c-1.7 0-3 1.3-3 3 0 .2 0 .5.1.9.4 1.2 1.5 2.1 2.9 2.1 1.7 0 3-1.3 3-3 0-1.6-1.3-3-3-3z"/><path fill="#5CC4CA" d="M63.3 70.9H25.8c-1.1 0-2-.9-2-2v-45c0-1.1.9-2 2-2h37.6c1.1 0 2 .9 2 2V69c-.1 1-.9 1.9-2.1 1.9zm-35.5-4h33.6v-41H27.8v41z"/><path fill="#5CC4CA" d="M55.1 34.3h-21c-1.1 0-2-.9-2-2s.9-2 2-2h21c1.1 0 2 .9 2 2s-.9 2-2 2zM55.1 42.9h-21c-1.1 0-2-.9-2-2s.9-2 2-2h21c1.1 0 2 .9 2 2s-.9 2-2 2z"/></svg>